<svg width="531" height="138" viewBox="0 0 531 138" fill="none" xmlns="http://www.w3.org/2000/svg">
<path d="M124.835 103.5C123.361 103.5 122.175 103.091 121.274 102.273C120.455 101.374 120.046 100.229 120.046 98.8386V41.1853C120.046 39.7951 120.455 38.6502 121.274 37.7507C122.175 36.8511 123.361 36.4013 124.835 36.4013C126.227 36.4013 127.332 36.8511 128.151 37.7507C129.051 38.6502 129.501 39.7951 129.501 41.1853V43.884C131.794 41.2671 134.495 39.2635 137.606 37.8733C140.717 36.4013 144.155 35.6653 147.921 35.6653C152.505 35.6653 156.558 36.6875 160.078 38.732C163.68 40.7764 166.545 43.5976 168.673 47.196C170.966 43.5976 174.036 40.7764 177.883 38.732C181.731 36.6875 186.029 35.6653 190.777 35.6653C195.607 35.6653 199.864 36.8102 203.548 39.1C207.313 41.3898 210.22 44.6201 212.266 48.7907C214.395 52.9614 215.459 57.8681 215.459 63.5106V98.8386C215.459 100.229 215.009 101.374 214.108 102.273C213.289 103.091 212.184 103.5 210.793 103.5C209.401 103.5 208.255 103.091 207.354 102.273C206.454 101.374 206.004 100.229 206.004 98.8386V63.5106C206.004 57.7042 204.489 53.1248 201.46 49.7718C198.431 46.3374 194.543 44.6201 189.795 44.6201C184.719 44.6201 180.544 46.3374 177.269 49.7718C174.077 53.1248 172.521 57.6227 172.603 63.2652V63.5106V98.8386C172.603 100.229 172.153 101.374 171.252 102.273C170.433 103.091 169.328 103.5 167.937 103.5C166.545 103.5 165.399 103.091 164.498 102.273C163.598 101.374 163.148 100.229 163.148 98.8386V63.5106C163.148 57.7042 161.633 53.1248 158.604 49.7718C155.575 46.3374 151.687 44.6201 146.939 44.6201C141.863 44.6201 137.688 46.2964 134.413 49.6494C131.139 52.9204 129.501 57.2139 129.501 62.5295V98.8386C129.501 100.229 129.051 101.374 128.151 102.273C127.332 103.091 126.227 103.5 124.835 103.5ZM264.119 104.113C257.816 104.113 252.167 102.641 247.173 99.6972C242.179 96.6716 238.209 92.5825 235.262 87.4307C232.397 82.2786 230.964 76.4722 230.964 70.0121C230.964 63.4696 232.437 57.6227 235.385 52.4706C238.414 47.3185 242.507 43.2707 247.665 40.3266C252.822 37.3009 258.634 35.788 265.102 35.788C271.569 35.788 277.34 37.3009 282.416 40.3266C287.573 43.2707 291.626 47.3185 294.573 52.4706C297.602 57.6227 299.157 63.4696 299.239 70.0121V98.8386C299.239 100.229 298.789 101.374 297.888 102.273C296.988 103.091 295.842 103.5 294.45 103.5C293.058 103.5 291.912 103.091 291.012 102.273C290.111 101.374 289.661 100.229 289.661 98.8386V91.356C286.877 95.2812 283.275 98.3888 278.855 100.679C274.434 102.968 269.522 104.113 264.119 104.113ZM265.102 95.5266C269.85 95.5266 274.066 94.4226 277.749 92.2146C281.515 90.0066 284.463 86.9809 286.591 83.1372C288.801 79.212 289.906 74.8369 289.906 70.0121C289.906 65.1054 288.801 60.7303 286.591 56.8866C284.463 53.0433 281.515 50.0172 277.749 47.8092C274.066 45.5197 269.85 44.3747 265.102 44.3747C260.435 44.3747 256.219 45.5197 252.454 47.8092C248.688 50.0172 245.7 53.0433 243.489 56.8866C241.279 60.7303 240.174 65.1054 240.174 70.0121C240.174 74.8369 241.279 79.212 243.489 83.1372C245.7 86.9809 248.688 90.0066 252.454 92.2146C256.219 94.4226 260.435 95.5266 265.102 95.5266ZM342.065 103.5C337.727 103.5 333.838 102.478 330.4 100.433C327.043 98.3888 324.383 95.6085 322.418 92.0921C320.453 88.4938 319.471 84.4047 319.471 79.8252V47.0735H311.489C310.261 47.0735 309.238 46.7052 308.419 45.9695C307.6 45.1514 307.191 44.1703 307.191 43.0253C307.191 41.7986 307.6 40.8173 308.419 40.0813C309.238 39.2635 310.261 38.8547 311.489 38.8547H319.471V19.8413C319.471 18.4511 319.88 17.3062 320.699 16.4066C321.599 15.5071 322.745 15.0573 324.137 15.0573C325.529 15.0573 326.675 15.5071 327.575 16.4066C328.476 17.3062 328.926 18.4511 328.926 19.8413V38.8547H342.802C344.03 38.8547 345.053 39.2635 345.872 40.0813C346.691 40.8173 347.1 41.7986 347.1 43.0253C347.1 44.1703 346.691 45.1514 345.872 45.9695C345.053 46.7052 344.03 47.0735 342.802 47.0735H328.926V79.8252C328.926 83.9958 330.154 87.4307 332.61 90.1295C335.066 92.7463 338.218 94.0547 342.065 94.0547H345.381C346.691 94.0547 347.755 94.5045 348.574 95.4041C349.392 96.3037 349.801 97.4482 349.801 98.8386C349.801 100.229 349.311 101.374 348.328 102.273C347.346 103.091 346.118 103.5 344.644 103.5H342.065ZM389.63 103.5C385.291 103.5 381.402 102.478 377.964 100.433C374.608 98.3888 371.947 95.6085 369.982 92.0921C368.018 88.4938 367.035 84.4047 367.035 79.8252V47.0735H359.054C357.826 47.0735 356.802 46.7052 355.983 45.9695C355.165 45.1514 354.756 44.1703 354.756 43.0253C354.756 41.7986 355.165 40.8173 355.983 40.0813C356.802 39.2635 357.826 38.8547 359.054 38.8547H367.035V19.8413C367.035 18.4511 367.445 17.3062 368.263 16.4066C369.164 15.5071 370.31 15.0573 371.701 15.0573C373.093 15.0573 374.239 15.5071 375.14 16.4066C376.041 17.3062 376.491 18.4511 376.491 19.8413V38.8547H390.367C391.595 38.8547 392.618 39.2635 393.437 40.0813C394.255 40.8173 394.664 41.7986 394.664 43.0253C394.664 44.1703 394.255 45.1514 393.437 45.9695C392.618 46.7052 391.595 47.0735 390.367 47.0735H376.491V79.8252C376.491 83.9958 377.719 87.4307 380.175 90.1295C382.631 92.7463 385.782 94.0547 389.63 94.0547H392.945C394.255 94.0547 395.32 94.5045 396.138 95.4041C396.957 96.3037 397.366 97.4482 397.366 98.8386C397.366 100.229 396.875 101.374 395.893 102.273C394.91 103.091 393.682 103.5 392.209 103.5H389.63ZM417.67 103.5C416.196 103.5 415.009 103.091 414.109 102.273C413.29 101.374 412.881 100.188 412.881 98.7161V41.1853C412.881 39.7133 413.29 38.5684 414.109 37.7507C415.009 36.8511 416.196 36.4013 417.67 36.4013C419.061 36.4013 420.167 36.8511 420.985 37.7507C421.886 38.5684 422.336 39.7133 422.336 41.1853V98.7161C422.336 100.188 421.886 101.374 420.985 102.273C420.167 103.091 419.061 103.5 417.67 103.5ZM417.547 23.644C415.746 23.644 414.191 22.9898 412.881 21.6813C411.571 20.3729 410.916 18.7782 410.916 16.8973C410.916 14.8529 411.571 13.2582 412.881 12.1133C414.273 10.8866 415.869 10.2733 417.67 10.2733C419.389 10.2733 420.904 10.8866 422.213 12.1133C423.605 13.2582 424.301 14.8529 424.301 16.8973C424.301 18.7782 423.646 20.3729 422.336 21.6813C421.026 22.9898 419.43 23.644 417.547 23.644ZM468.023 104.113C463.196 104.113 458.404 103.296 453.656 101.66C448.907 100.025 445.06 97.5711 442.116 94.3001C441.214 93.3186 440.847 92.2146 441.011 90.9881C441.171 89.7612 441.788 88.6982 442.85 87.7986C443.998 86.9809 445.185 86.6536 446.411 86.8175C447.642 86.9809 448.665 87.5123 449.481 88.4118C451.445 90.7018 454.027 92.46 457.217 93.6864C460.494 94.9134 464.094 95.5266 468.023 95.5266C474.084 95.5266 478.461 94.5045 481.164 92.46C483.866 90.3339 485.256 87.7986 485.339 84.8544C485.339 81.9107 483.948 79.4983 481.164 77.6172C478.379 75.6546 473.795 74.1418 467.41 73.0787C459.143 71.7703 453.086 69.4804 449.235 66.2094C445.388 62.9383 443.463 59.0536 443.463 54.5561C443.463 50.3855 444.568 46.9096 446.778 44.1294C448.989 41.3489 451.937 39.2635 455.62 37.8733C459.307 36.4831 463.356 35.788 467.777 35.788C473.264 35.788 477.969 36.7284 481.902 38.6093C485.913 40.4902 489.146 43.0253 491.603 46.2145C492.419 47.2779 492.747 48.3819 492.583 49.5265C492.419 50.6714 491.767 51.612 490.618 52.3481C489.638 52.9204 488.49 53.1248 487.182 52.9614C485.952 52.716 484.89 52.1027 483.987 51.1212C479.977 46.5418 474.49 44.2518 467.535 44.2518C463.032 44.2518 459.427 45.1924 456.725 47.0735C454.027 48.8723 452.676 51.1622 452.676 53.9425C452.676 56.7232 453.863 59.0127 456.237 60.8118C458.694 62.611 463.274 64.0833 469.987 65.2278C476.13 66.2094 480.957 67.6812 484.479 69.6438C488.08 71.5249 490.618 73.7739 492.09 76.3907C493.649 78.9256 494.426 81.7063 494.426 84.732C494.426 88.5757 493.278 91.9692 490.985 94.9134C488.775 97.7756 485.667 100.025 481.656 101.66C477.723 103.296 473.182 104.113 468.023 104.113Z" fill="#211E4D"/>
<path fill-rule="evenodd" clip-rule="evenodd" d="M68.4101 12.7776H3.70537e-05L28.8042 41.5513H97.214L68.4101 12.7776ZM28.8042 41.5513V109.889L0 81.115V12.7776L28.8042 41.5513Z" fill="#CCCCCC"/>
<path fill-rule="evenodd" clip-rule="evenodd" d="M28.8042 109.889H97.2139L68.41 81.115H0L28.8042 109.889ZM68.41 81.115V12.7776L97.2143 41.5513V109.889L68.41 81.115Z" fill="#211E4D"/>
</svg>
