<svg width="602" height="430" viewBox="0 0 602 430" fill="none" xmlns="http://www.w3.org/2000/svg">
<path d="M498.39 272.075C498.914 270.985 499.193 269.792 499.207 268.582C499.221 267.372 498.969 266.174 498.47 265.072C497.97 263.97 497.235 262.99 496.317 262.203C495.398 261.416 494.318 260.839 493.152 260.514L491.321 231.157L479.11 240.35L482.721 266.819C482.305 268.813 482.635 270.891 483.649 272.658C484.663 274.425 486.29 275.759 488.221 276.407C490.152 277.055 492.254 276.972 494.128 276.173C496.003 275.375 497.519 273.917 498.39 272.075Z" fill="#FFB8B8"/>
<path d="M551.62 387.473L561.32 390.254L576.663 354.162L562.348 350.057L551.62 387.473Z" fill="#FFB8B8"/>
<path d="M577.444 404.625L546.959 395.884L550.336 384.105L569.043 389.469C572.166 390.365 574.806 392.465 576.382 395.307C577.957 398.15 578.339 401.501 577.444 404.625Z" fill="#2F2E41"/>
<path d="M536.078 420.63L525.987 420.629L521.186 381.705L536.08 381.706L536.078 420.63Z" fill="#FFB8B8"/>
<path d="M518.779 417.746H538.24V429.999H506.526C506.526 428.39 506.843 426.797 507.459 425.31C508.075 423.823 508.977 422.472 510.115 421.335C511.253 420.197 512.604 419.294 514.09 418.678C515.577 418.063 517.17 417.746 518.779 417.746Z" fill="#2F2E41"/>
<path d="M508.171 261.933C508.171 261.933 502.409 284.98 512.286 331.898L519.694 412.564L538.624 413.387L536.155 326.136L542.739 289.919L559.201 340.129L553.439 375.524L567.431 382.108L583.069 333.544C583.069 333.544 581.423 266.048 574.839 257.817L508.171 261.933Z" fill="#2F2E41"/>
<path d="M532.075 130.647C543.24 130.647 552.29 121.595 552.29 110.43C552.29 99.2647 543.24 90.2134 532.075 90.2134C520.911 90.2134 511.86 99.2647 511.86 110.43C511.86 121.595 520.911 130.647 532.075 130.647Z" fill="#FFB8B8"/>
<path d="M521.34 141.131C521.34 141.131 520.105 143.846 534.92 142.169C549.735 140.491 553.028 135.584 553.028 135.584L578.954 249.321L577.308 259.386L506.525 263.579V249.321L518.87 173.84L521.34 141.131Z" fill="#E6E6E6"/>
<path d="M527.4 260.704L504.961 260.28L504.889 259.967C501.992 244.372 502.272 228.352 505.711 212.866C510.243 192.797 499.946 165.579 495.308 154.809C494.762 153.528 494.697 152.093 495.125 150.767C495.553 149.442 496.446 148.316 497.638 147.597L513.522 138.067C514.602 137.418 515.82 137.031 517.077 136.937C518.333 136.842 519.595 137.043 520.761 137.523C521.926 138.002 522.964 138.748 523.79 139.7C524.616 140.651 525.209 141.783 525.52 143.005L528.297 153.9C541.087 167.654 540.19 195.865 537.18 217.131C535.027 231.778 531.789 246.245 527.493 260.412L527.4 260.704Z" fill="#2F2E41"/>
<path d="M501.998 145.461L500.057 146.789C495.672 149.77 492.379 154.1 490.677 159.122C489.689 162.05 488.934 165.051 488.417 168.097C486.771 177.975 479.363 219.954 479.363 219.954L476.071 261.11L494.179 256.994L502.409 209.253L510.64 179.621L501.998 145.461Z" fill="#2F2E41"/>
<path d="M566.392 260.9L566.221 260.427C565.044 257.164 537.575 180.308 550.549 153.207L549.278 140.497C549.142 139.135 549.346 137.761 549.872 136.498C550.398 135.235 551.23 134.122 552.292 133.26C553.355 132.398 554.615 131.813 555.959 131.558C557.303 131.304 558.69 131.387 559.994 131.8L579.845 138.094C580.664 138.35 581.379 138.864 581.882 139.559C582.386 140.254 582.651 141.093 582.639 141.952C582.557 149.258 582.153 167.879 580.185 182.966C577.752 201.619 585.862 248.224 585.944 248.692L585.993 248.969L566.392 260.9Z" fill="#2F2E41"/>
<path d="M557.643 240.465C557.667 239.255 557.955 238.065 558.488 236.979C559.021 235.893 559.786 234.936 560.728 234.178C561.671 233.419 562.768 232.876 563.943 232.587C565.118 232.299 566.343 232.271 567.529 232.507L582.396 207.126L589.152 220.837L573.999 242.836C573.471 244.804 572.24 246.51 570.539 247.63C568.837 248.751 566.784 249.208 564.768 248.916C562.752 248.624 560.913 247.602 559.6 246.044C558.287 244.487 557.591 242.502 557.643 240.465Z" fill="#FFB8B8"/>
<path d="M576.896 138.053L577.961 138.299C579.278 138.603 580.498 139.229 581.512 140.122C582.526 141.015 583.302 142.146 583.77 143.414L602 192.791L580.6 239.709L572.781 220.365L582.658 198.964L564.962 176.328L576.896 138.053Z" fill="#2F2E41"/>
<path d="M552.565 113.225C553.726 110.227 554.595 107.125 555.161 103.961C555.722 100.779 555.347 97.5018 554.083 94.5281C552.724 91.9275 550.823 89.6486 548.509 87.8454C546.922 86.496 545.257 85.2424 543.521 84.0913C538.63 80.8474 537.566 83.7991 531.699 83.1352C525.833 82.4712 519.259 80.7838 514.557 84.2857C511.516 86.5958 509.232 89.7605 508 93.3753C506.767 96.99 506.64 100.89 507.635 104.578C508.946 109.039 507.903 110.509 511.95 112.92C511.948 108.905 513.475 105.04 516.221 102.112C519.025 99.1728 522.82 97.3779 526.871 97.0741C529.99 96.848 533.097 97.5136 536.152 98.1752C539.115 98.8171 542.159 99.4919 544.671 101.161C548.834 103.928 550.786 108.868 552.502 113.502" fill="#2F2E41"/>
<path d="M358.856 191.787H0V193.433H358.856V191.787Z" fill="#E6E6E6"/>
<path d="M358.856 127.584H0V129.23H358.856V127.584Z" fill="#E6E6E6"/>
<path d="M358.856 63.3802H0V65.0265H358.856V63.3802Z" fill="#E6E6E6"/>
<path d="M287.908 0H286.262V256.814H287.908V0Z" fill="#E6E6E6"/>
<path d="M216.137 0H214.491V256.814H216.137V0Z" fill="#E6E6E6"/>
<path d="M144.365 0H142.719V256.814H144.365V0Z" fill="#E6E6E6"/>
<path d="M72.5942 0H70.9481V256.814H72.5942V0Z" fill="#E6E6E6"/>
<path d="M215.643 64.2034H71.6066V128.407H215.643V64.2034Z" fill="#6C63FF"/>
<path d="M71.6066 123.468V192.61L146.505 125.938L71.6066 123.468Z" fill="#6C63FF"/>
<path d="M215.643 125.938V128.407L214.704 129.238L212.811 130.917C175.996 132.029 146.259 158.401 144.917 191.104L143.23 192.602L143.213 192.61V123.468L215.643 125.938Z" fill="#6C63FF"/>
<path d="M215.231 129.23C215.058 129.23 214.877 129.23 214.704 129.238C175.543 129.485 143.715 157.735 143.23 192.602C143.213 192.882 143.213 193.154 143.213 193.433C143.213 228.836 175.518 257.637 215.231 257.637C254.944 257.637 287.249 228.836 287.249 193.433C287.249 158.031 254.944 129.23 215.231 129.23ZM215.231 255.991C176.432 255.991 144.859 227.93 144.859 193.433C144.859 192.651 144.876 191.878 144.917 191.104C146.259 158.401 175.996 132.029 212.811 130.917C213.61 130.884 214.416 130.876 215.231 130.876C254.031 130.876 285.603 158.936 285.603 193.433C285.603 227.93 254.031 255.991 215.231 255.991Z" fill="#E6E6E6"/>
<path d="M175.724 192.624L171.609 192.601C171.611 192.235 172.27 155.988 214.368 153.474L214.613 157.582C176.433 159.862 175.735 191.287 175.724 192.624Z" fill="#E6E6E6"/>
<path d="M256.78 191.787C256.621 187.096 255.52 182.484 253.544 178.226C251.567 173.968 248.754 170.152 245.273 167.003C237.089 159.539 226.39 155.439 215.314 155.52H215.231C192.622 155.52 174.168 171.711 173.683 191.787C173.666 192.059 173.667 192.339 173.667 192.61C173.667 203.113 178.58 212.604 186.465 219.353C194.516 226.118 204.716 229.787 215.231 229.7H215.314C238.195 229.659 256.796 213.04 256.796 192.61C256.796 192.339 256.796 192.059 256.78 191.787Z" fill="#E6E6E6"/>
<path d="M245.273 167.003L244.039 168.098L187.7 218.259L186.465 219.354C178.58 212.604 173.667 203.113 173.667 192.61C173.667 192.339 173.667 192.059 173.683 191.787C174.168 171.711 192.622 155.52 215.231 155.52H215.314C226.39 155.439 237.089 159.539 245.273 167.003Z" fill="#6C63FF"/>
</svg>
